<svg width="0" height="0" class="hidden">
   <symbol fill="none" xmlns="http://www.w3.org/2000/svg" viewBox="0 0 117 117" id="juris">
    <path d="M117 21.9375V95.0625C117 107.157 107.157 117 95.0625 117H65.8125C64.467 117 63.375 115.908 63.375 114.562C63.375 113.217 64.467 112.125 65.8125 112.125H95.0625C104.471 112.125 112.125 104.471 112.125 95.0625V21.9375C112.125 12.5288 104.471 4.875 95.0625 4.875H51.1875C41.7788 4.875 34.125 12.5288 34.125 21.9375V46.3125C34.125 47.658 33.033 48.75 31.6875 48.75C30.342 48.75 29.25 47.658 29.25 46.3125V21.9375C29.25 9.84263 39.0926 0 51.1875 0H95.0625C107.157 0 117 9.84263 117 21.9375ZM51.1875 24.375H95.0625C96.408 24.375 97.5 23.283 97.5 21.9375C97.5 20.592 96.408 19.5 95.0625 19.5H51.1875C49.842 19.5 48.75 20.592 48.75 21.9375C48.75 23.283 49.842 24.375 51.1875 24.375ZM51.1875 43.875H95.0625C96.408 43.875 97.5 42.783 97.5 41.4375C97.5 40.092 96.408 39 95.0625 39H51.1875C49.842 39 48.75 40.092 48.75 41.4375C48.75 42.783 49.842 43.875 51.1875 43.875ZM51.1875 63.375H85.3125C86.658 63.375 87.75 62.283 87.75 60.9375C87.75 59.592 86.658 58.5 85.3125 58.5H51.1875C49.842 58.5 48.75 59.592 48.75 60.9375C48.75 62.283 49.842 63.375 51.1875 63.375ZM87.75 73.125C95.8132 73.125 102.375 79.6868 102.375 87.75C102.375 95.8132 95.8132 102.375 87.75 102.375C79.6868 102.375 73.125 95.8132 73.125 87.75C73.125 79.6868 79.6868 73.125 87.75 73.125ZM87.75 78C82.3729 78 78 82.3729 78 87.75C78 93.1271 82.3729 97.5 87.75 97.5C93.1271 97.5 97.5 93.1271 97.5 87.75C97.5 82.3729 93.1271 78 87.75 78ZM53.625 114.562C53.625 115.908 52.533 117 51.1875 117H2.4375C1.092 117 0 115.908 0 114.562C0 113.217 1.092 112.125 2.4375 112.125H4.875V107.25C4.875 99.1868 11.4367 92.625 19.5 92.625H21.3427C16.8821 80.8811 14.625 73.437 14.625 70.4925C14.625 63.765 19.9778 58.5 26.8125 58.5C33.6473 58.5 39 63.765 39 70.4925C39 73.437 36.738 80.8811 32.2822 92.625H34.125C42.1883 92.625 48.75 99.1868 48.75 107.25V112.125H51.1875C52.533 112.125 53.625 113.217 53.625 114.562ZM26.559 92.625H27.066C33.6082 75.5966 34.125 71.3895 34.125 70.4925C34.125 66.5048 30.9124 63.375 26.8125 63.375C22.7126 63.375 19.5 66.5048 19.5 70.4925C19.5 71.3895 20.0168 75.5966 26.559 92.625ZM9.75 112.125H43.875V107.25C43.875 101.873 39.5021 97.5 34.125 97.5H19.5C14.1229 97.5 9.75 101.873 9.75 107.25V112.125Z" fill="black"></path>
  </symbol>
  <symbol fill="none" xmlns="http://www.w3.org/2000/svg" viewBox="0 0 117 109" id="medic">
    <path d="M95.0625 20.375H78V13.0625C78 6.34475 72.5351 0.875 65.8125 0.875H51.1875C44.4649 0.875 39 6.34475 39 13.0625V20.375H21.9375C9.84263 20.375 0 30.2176 0 42.3125V86.1875C0 98.2824 9.84263 108.125 21.9375 108.125H95.0625C107.157 108.125 117 98.2824 117 86.1875V42.3125C117 30.2176 107.157 20.375 95.0625 20.375ZM43.875 13.0625C43.875 9.03088 47.1559 5.75 51.1875 5.75H65.8125C69.8441 5.75 73.125 9.03088 73.125 13.0625V20.375H43.875V13.0625ZM112.125 86.1875C112.125 95.5963 104.471 103.25 95.0625 103.25H21.9375C12.5288 103.25 4.875 95.5963 4.875 86.1875V42.3125C4.875 32.9038 12.5288 25.25 21.9375 25.25H95.0625C104.471 25.25 112.125 32.9038 112.125 42.3125V86.1875ZM78 64.25C78 65.5955 76.908 66.6875 75.5625 66.6875H60.9375V81.3125C60.9375 82.658 59.8455 83.75 58.5 83.75C57.1545 83.75 56.0625 82.658 56.0625 81.3125V66.6875H41.4375C40.092 66.6875 39 65.5955 39 64.25C39 62.9045 40.092 61.8125 41.4375 61.8125H56.0625V47.1875C56.0625 45.842 57.1545 44.75 58.5 44.75C59.8455 44.75 60.9375 45.842 60.9375 47.1875V61.8125H75.5625C76.908 61.8125 78 62.9045 78 64.25Z" fill="black"></path>
  </symbol>
  <symbol fill="none" xmlns="http://www.w3.org/2000/svg" viewBox="0 0 117 117" id="other">
    <path d="M87.75 117H51.5239C51.5239 117 53.625 110.623 53.625 104.812C53.625 98.0899 48.1553 92.625 41.4375 92.625C34.7197 92.625 29.25 98.0899 29.25 104.812C29.25 109.751 31.3511 117 31.3511 117H0V41.4375C0 34.7149 5.46975 29.25 12.1875 29.25H26.3689C25.1355 24.531 24.375 19.9729 24.375 17.0625C24.375 7.65375 32.0288 0 41.4375 0C50.8462 0 58.5 7.65375 58.5 17.0625C58.5 19.9729 57.7444 24.531 56.5061 29.25H75.5625C82.2803 29.25 87.75 34.7149 87.75 41.4375V55.6189C92.4739 54.3806 97.032 53.625 99.9375 53.625C109.346 53.625 117 61.2788 117 70.6875C117 80.0963 109.346 87.75 99.9375 87.75C97.032 87.75 92.4739 86.9944 87.75 85.7561V117ZM57.6225 112.125H82.875V79.2529C82.875 79.2529 93.1271 82.875 99.9375 82.875C106.655 82.875 112.125 77.4101 112.125 70.6875C112.125 63.9649 106.655 58.5 99.9375 58.5C94.7505 58.5 82.875 62.1221 82.875 62.1221V41.4375C82.875 37.4059 79.5941 34.125 75.5625 34.125H49.998C49.998 34.125 53.625 22.7516 53.625 17.0625C53.625 10.3399 48.1553 4.875 41.4375 4.875C34.7197 4.875 29.25 10.3399 29.25 17.0625C29.25 23.0002 32.877 34.125 32.877 34.125H12.1875C8.15588 34.125 4.875 37.4059 4.875 41.4375V112.125H25.2525C24.687 109.224 24.375 106.65 24.375 104.812C24.375 95.4037 32.0288 87.75 41.4375 87.75C50.8462 87.75 58.5 95.4037 58.5 104.812C58.5 106.65 58.188 109.224 57.6225 112.125Z" fill="black"></path>
  </symbol>
  <symbol fill="none" xmlns="http://www.w3.org/2000/svg" viewBox="0 0 99 117" id="personal">
    <path d="M88.9875 26.2763L72.0225 9.2625C66.0263 3.26625 58.08 0 49.5975 0H22.6875C10.5975 0 0.75 9.8475 0.75 21.9375V95.0625C0.75 107.153 10.5975 117 22.6875 117H37.3125C38.6775 117 39.75 115.928 39.75 114.563C39.75 113.198 38.6775 112.125 37.3125 112.125H22.6875C13.2788 112.125 5.625 104.471 5.625 95.0625V21.9375C5.625 12.5288 13.2788 4.875 22.6875 4.875H49.5488C51.1575 4.875 52.7663 5.02125 54.375 5.31375V31.6875C54.375 38.415 59.835 43.875 66.5625 43.875H92.9363C93.2288 45.435 93.375 47.0438 93.375 48.7013V95.0625C93.375 101.156 90.1088 106.811 84.8438 109.834C83.6738 110.516 83.2838 111.979 83.9663 113.149C84.6488 114.319 86.16 114.709 87.2813 114.026C94.0575 110.126 98.25 102.814 98.25 95.0138V48.7013C98.25 40.2188 94.935 32.2725 88.9875 26.2763ZM66.5625 39C62.5163 39 59.25 35.7338 59.25 31.6875V6.67875C62.7113 7.995 65.8313 10.0425 68.5125 12.7238L85.4775 29.7375C88.1588 32.4188 90.2063 35.5875 91.5225 39H66.5138H66.5625ZM61.6875 63.375C52.2788 63.375 44.625 71.0288 44.625 80.4375C44.625 85.0688 46.4775 89.31 49.5 92.3813V111.833C49.5 113.929 50.7675 115.83 52.7175 116.659C53.3513 116.903 54.0338 117.049 54.7163 117.049C56.0813 117.049 57.3975 116.513 58.3725 115.538L61.6875 112.223L65.0025 115.538C66.5138 117.049 68.7075 117.488 70.6575 116.659C72.6075 115.83 73.875 113.978 73.875 111.833V92.3813C76.8975 89.31 78.75 85.0688 78.75 80.4375C78.75 71.0288 71.0963 63.375 61.6875 63.375ZM61.6875 68.25C68.415 68.25 73.875 73.71 73.875 80.4375C73.875 87.165 68.415 92.625 61.6875 92.625C54.96 92.625 49.5 87.165 49.5 80.4375C49.5 73.71 54.96 68.25 61.6875 68.25ZM68.4638 112.028L61.6875 105.251L54.9113 112.028L54.375 111.784V95.8425C56.5688 96.915 59.055 97.5 61.6875 97.5C64.32 97.5 66.8063 96.915 69 95.8425V111.784L68.4638 112.028Z" fill="black"></path>
  </symbol>   
  <symbol fill="none" xmlns="http://www.w3.org/2000/svg" viewBox="0 0 117 117" id="tech">
    <g clip-path="url(#clip0_17_207)">
      <path d="M107.25 102.375V53.625C107.25 48.3454 104.413 43.7531 100.21 41.1791L76.3474 6.17175C74.2462 2.50575 70.3365 0 65.8125 0C59.0947 0 53.625 5.46975 53.625 12.1875C53.625 12.5726 53.703 12.9382 53.7371 13.3136L37.7276 29.25H14.9272L0.272995 43.9042L10.3642 53.9955L20.4847 43.875H33.4327L34.1299 44.5721V57.5201L24.0094 67.6406L34.1006 77.7319L48.7549 63.0776V40.2773L61.581 27.4463L78.1852 51.8115C78.1072 52.416 78 53.0059 78 53.6299V102.38H68.25V117.005H117V102.38L107.25 102.375ZM102.375 53.625C102.375 59.0021 98.0021 63.375 92.625 63.375C87.2479 63.375 82.875 59.0021 82.875 53.625C82.875 48.2479 87.2479 43.875 92.625 43.875C98.0021 43.875 102.375 48.2479 102.375 53.625ZM102.375 64.4475V102.375H82.875V64.4475C85.4685 66.7875 88.8664 68.25 92.625 68.25C96.3836 68.25 99.7815 66.7826 102.375 64.4475ZM43.875 61.0545L34.0957 70.8337L30.8977 67.6357L39 59.5335V42.549L35.4461 38.9951H18.4616L10.3594 47.0974L7.16137 43.8994L16.9406 34.1201H37.7227L43.8701 40.2675V61.0496L43.875 61.0545ZM46.3125 35.8166L42.1834 31.6875L55.4141 18.4568C55.6969 18.9199 56.0137 19.3538 56.3501 19.773L58.7827 23.3366L46.3125 35.8166ZM58.5 12.1875C58.5 8.151 61.776 4.875 65.8125 4.875C69.849 4.875 73.125 8.151 73.125 12.1875C73.125 16.224 69.849 19.5 65.8125 19.5C61.776 19.5 58.5 16.224 58.5 12.1875ZM65.3542 24.3311C65.5102 24.336 65.6565 24.375 65.8125 24.375C71.1262 24.375 75.6064 20.9381 77.2736 16.185L92.8395 39.0195C92.7664 39.0195 92.6981 39 92.6299 39C87.3405 39 82.7434 41.847 80.1742 46.0639L65.3542 24.3311ZM112.125 112.125H73.125V107.25H112.125V112.125Z" fill="black"></path>
    </g>
    <defs>
      <clipPath id="clip0_17_207">
        <rect width="117" height="117" fill="white"></rect>
      </clipPath>
    </defs>
  </symbol>  
  <symbol xmlns="http://www.w3.org/2000/svg" viewBox="0 0 24 24" id="time">
    <path fill-rule="evenodd" clip-rule="evenodd" d="M12 23C5.92487 23 1 18.0751 1 12C1 5.92487 5.92487 1 12 1C18.0751 1 23 5.92487 23 12C23 18.0751 18.0751 23 12 23ZM12 21C16.9706 21 21 16.9706 21 12C21 7.02944 16.9706 3 12 3C7.02944 3 3 7.02944 3 12C3 16.9706 7.02944 21 12 21ZM17 11H13V6H11V13H17V11Z" fill="white"></path>
  </symbol>
 
  <symbol fill="none" xmlns="http://www.w3.org/2000/svg" stroke="#11263A" viewBox="0 0 24 24" id="arrow-slider">
    <g id="SVGRepo_bgCarrier" stroke-width="0"></g>
    <g id="SVGRepo_tracerCarrier" stroke-linecap="round" stroke-linejoin="round" stroke="#CCCCCC" stroke-width="0.048"></g>
    <g id="SVGRepo_iconCarrier">
      <path d="M5 12H19M19 12L13 6M19 12L13 18" stroke="#11263A" stroke-width="0.696" stroke-linecap="round" stroke-linejoin="round"></path>
    </g>
  </symbol>

  <symbol xmlns="http://www.w3.org/2000/svg" width="2128" height="23" viewBox="0 0 2128 23" fill="none" id="zigzag">
    <path d="M0.5 22L9.5 10L24.5 22L35.5 10L59.5 22L76 10L91.5 22L112.5 10L138.5 22L156.5 10L171.5 22L208 10L218.5 22L237 10L250.5 22L268.5 10L281 22L299 10L312.5 22L337 10L349 22L367 10L388.5 22L406.5 10L423.5 22L437 10L450.5 22L475 10L488.5 22L508 10L523.5 22L544.5 10L564.5 22L584 10L609.5 22L641.5 10H652L672 22L691.5 10L714.5 22L728 10L755.5 22L773.5 10L799 22L825 10L846 22L870.5 10L902.5 22L920.5 10L957 22L969 10L991.5 22L1022 1L1052.5 22L1073.5 10L1108.5 22L1129.5 10L1155.5 22L1172 10L1192 22L1219 10L1246.5 22L1273.5 10L1310 22L1328 1L1354 10L1396.5 22L1420.5 10L1443.5 22L1480 10L1502.5 22L1520.5 10L1552.5 22L1570.5 1L1611.5 22L1637.5 10L1669.5 22L1710 10L1736 22L1775.5 10L1815 22L1840.5 10L1887.5 22L1930 1L1974 22L2010.5 10L2057.5 22L2086 10L2127.5 22" stroke="black" stroke-opacity="0.3" stroke-linejoin="round"/>
  </symbol>

  <symbol
    id="phone"
    width="24"
    height="24"
    viewBox="0 0 24 24"
  >
    <path
      clip-rule="evenodd"
      d="M10.8566 8.3379C11.3747 7.63969 11.5605 6.90384 10.9745 6.25431C9.65955 4.41433 8.77521 3.27649 8.22051 2.72854C7.16595 1.6868 5.43118 1.82771 4.51785 2.72765C4.0273 3.21101 3.86122 3.377 3.35753 3.88861C0.551877 6.69577 2.26291 12.63 6.81145 17.183C11.359 21.735 17.2926 23.4469 20.1042 20.6338C20.569 20.1858 20.9625 19.792 21.2729 19.464C22.1679 18.518 22.3038 16.8597 21.267 15.7824C20.7354 15.2301 19.6504 14.3885 17.733 13.0169C17.1457 12.4918 16.4495 12.6056 15.8111 13.0244C15.504 13.2259 15.2806 13.4297 14.8586 13.8521L14.0924 14.6187C13.9914 14.7197 12.621 14.0334 11.2908 12.7018C9.95978 11.3695 9.27396 9.99906 9.37441 9.89862L10.1412 9.13142C10.2751 8.99742 10.3391 8.93254 10.4211 8.84627C10.5921 8.66654 10.7337 8.50344 10.8566 8.3379ZM15.5058 16.0329L16.2722 15.2661C16.5044 15.0337 16.6549 14.8907 16.7774 14.7922C18.457 15.9984 19.4298 16.7568 19.8271 17.1697C20.0657 17.4176 20.0286 17.8699 19.8212 18.089C19.5342 18.3924 19.1614 18.7655 18.7038 19.2068C16.8858 21.0256 12.096 19.6437 8.22519 15.7691C4.35321 11.8933 2.97194 7.10279 4.77626 5.29748C5.27792 4.78798 5.43686 4.62912 5.92042 4.15265C6.10172 3.97401 6.59558 3.93389 6.81614 4.15176C7.2432 4.57364 8.0354 5.58799 9.20077 7.21133C9.14044 7.28623 9.06509 7.37087 8.97339 7.46724C8.90609 7.53798 8.85002 7.59481 8.72744 7.71751L7.96142 8.48396C6.65827 9.787 7.76808 12.0047 9.87703 14.1157C11.9845 16.2253 14.2031 17.3364 15.5058 16.0329Z"
    />
  </symbol>

</svg>